<svg width="14" height="15" viewBox="0 0 14 15" fill="none" xmlns="http://www.w3.org/2000/svg">
<path fill-rule="evenodd" clip-rule="evenodd" d="M0.875 7.5C0.875 9.12445 1.52031 10.6824 2.66897 11.831C3.81763 12.9797 5.37555 13.625 7 13.625C8.62445 13.625 10.1824 12.9797 11.331 11.831C12.4797 10.6824 13.125 9.12445 13.125 7.5C13.125 5.87555 12.4797 4.31763 11.331 3.16897C10.1824 2.02031 8.62445 1.375 7 1.375C5.37555 1.375 3.81763 2.02031 2.66897 3.16897C1.52031 4.31763 0.875 5.87555 0.875 7.5ZM14 7.5C14 9.35652 13.2625 11.137 11.9497 12.4497C10.637 13.7625 8.85652 14.5 7 14.5C5.14348 14.5 3.36301 13.7625 2.05025 12.4497C0.737498 11.137 0 9.35652 0 7.5C0 5.64348 0.737498 3.86301 2.05025 2.55025C3.36301 1.2375 5.14348 0.5 7 0.5C8.85652 0.5 10.637 1.2375 11.9497 2.55025C13.2625 3.86301 14 5.64348 14 7.5ZM3.9375 7.0625C3.82147 7.0625 3.71019 7.10859 3.62814 7.19064C3.54609 7.27269 3.5 7.38397 3.5 7.5C3.5 7.61603 3.54609 7.72731 3.62814 7.80936C3.71019 7.89141 3.82147 7.9375 3.9375 7.9375H9.00638L7.12775 9.81525C7.08707 9.85593 7.05481 9.90422 7.03279 9.95736C7.01078 10.0105 6.99945 10.0675 6.99945 10.125C6.99945 10.1825 7.01078 10.2395 7.03279 10.2926C7.05481 10.3458 7.08707 10.3941 7.12775 10.4348C7.16843 10.4754 7.21672 10.5077 7.26986 10.5297C7.32301 10.5517 7.37997 10.5631 7.4375 10.5631C7.49503 10.5631 7.55199 10.5517 7.60514 10.5297C7.65828 10.5077 7.70657 10.4754 7.74725 10.4348L10.3723 7.80975C10.413 7.76911 10.4453 7.72083 10.4674 7.66768C10.4894 7.61453 10.5008 7.55755 10.5008 7.5C10.5008 7.44245 10.4894 7.38547 10.4674 7.33232C10.4453 7.27917 10.413 7.23089 10.3723 7.19025L7.74725 4.56525C7.70657 4.52457 7.65828 4.49231 7.60514 4.47029C7.55199 4.44828 7.49503 4.43695 7.4375 4.43695C7.37997 4.43695 7.32301 4.44828 7.26986 4.47029C7.21672 4.49231 7.16843 4.52457 7.12775 4.56525C7.08707 4.60593 7.05481 4.65422 7.03279 4.70736C7.01078 4.76051 6.99945 4.81747 6.99945 4.875C6.99945 4.93253 7.01078 4.98949 7.03279 5.04264C7.05481 5.09578 7.08707 5.14407 7.12775 5.18475L9.00638 7.0625H3.9375Z" fill="white"/>
</svg>
