<svg width="25" height="24" viewBox="0 0 25 24" fill="none" xmlns="http://www.w3.org/2000/svg">
<path d="M10.25 21.75V16.4925C10.25 16.125 10.625 15.75 11 15.75H14C14.375 15.75 14.75 16.125 14.75 16.5V21.75C14.75 21.9489 14.829 22.1397 14.9697 22.2803C15.1103 22.421 15.3011 22.5 15.5 22.5H21.5C21.6989 22.5 21.8897 22.421 22.0303 22.2803C22.171 22.1397 22.25 21.9489 22.25 21.75V11.25C22.2502 11.1514 22.2309 11.0538 22.1933 10.9627C22.1558 10.8716 22.1006 10.7888 22.031 10.719L20 8.6895V3.75C20 3.55109 19.921 3.36032 19.7803 3.21967C19.6397 3.07902 19.4489 3 19.25 3H17.75C17.5511 3 17.3603 3.07902 17.2197 3.21967C17.079 3.36032 17 3.55109 17 3.75V5.6895L13.031 1.719C12.9613 1.64915 12.8786 1.59374 12.7875 1.55593C12.6963 1.51812 12.5987 1.49866 12.5 1.49866C12.4014 1.49866 12.3037 1.51812 12.2126 1.55593C12.1214 1.59374 12.0387 1.64915 11.969 1.719L2.969 10.719C2.8994 10.7888 2.84423 10.8716 2.80665 10.9627C2.76908 11.0538 2.74983 11.1514 2.75 11.25V21.75C2.75 21.9489 2.82902 22.1397 2.96967 22.2803C3.11032 22.421 3.30109 22.5 3.5 22.5H9.5C9.69891 22.5 9.88968 22.421 10.0303 22.2803C10.171 22.1397 10.25 21.9489 10.25 21.75Z" fill="#748396"/>
</svg>
