<svg width="101" height="101" viewBox="0 0 101 101" fill="none" xmlns="http://www.w3.org/2000/svg">
<g clip-path="url(#clip0_1_80)">
<path d="M92.6053 92.8779H8.39478V29.2172H92.6053V92.8779Z" fill="#848484"/>
<path d="M86.2894 25.7084V91.1316H73.6577V25.7084H86.2894ZM14.7104 91.1316H27.3421V25.7084H14.7104V91.1316ZM44.1841 91.1316H56.8157V25.7084H44.1841V91.1316Z" fill="#999999"/>
<path d="M86.2894 53.002V92.8779H73.6577V53.002H86.2894ZM44.1841 92.8779H56.8157V53.002H44.1841V92.8779ZM14.7104 92.8779H27.3421V53.002H14.7104V92.8779Z" fill="#DBDBDB"/>
<path d="M98.921 92.6053C98.921 96.0936 96.0935 98.9211 92.6052 98.9211H8.39468C4.9064 98.9211 2.07886 96.0936 2.07886 92.6053C2.07886 89.117 4.9064 86.2895 8.39468 86.2895H92.6052C96.0935 86.2895 98.921 89.117 98.921 92.6053ZM6.10581 32.2969H94.8939C97.1179 32.2969 98.9208 30.4939 98.9208 28.2697C98.9209 27.5215 98.7124 26.788 98.3188 26.1516C97.9253 25.5152 97.3622 25.001 96.6927 24.6668L52.2988 2.50293C51.7402 2.22404 51.1244 2.07886 50.5 2.07886C49.8757 2.07886 49.2599 2.22404 48.7013 2.50293L4.30718 24.667C3.63771 25.0012 3.0746 25.5154 2.68104 26.1518C2.28747 26.7882 2.07902 27.5217 2.07905 28.2699C2.07886 30.4939 3.88179 32.2969 6.10581 32.2969Z" fill="#C1C1C1"/>
<path d="M66.2894 29.8289C66.2894 38.549 59.22 45.6183 50.4999 45.6183C41.7798 45.6183 34.7104 38.549 34.7104 29.8289C34.7104 21.1088 41.7798 14.0392 50.4999 14.0392C59.22 14.0392 66.2894 21.1086 66.2894 29.8289Z" fill="#FE9D5E"/>
<path d="M22.6053 59.2918V81.2361C22.6053 81.4435 22.5645 81.6488 22.4852 81.8404C22.4058 82.032 22.2895 82.206 22.1429 82.3526C21.9963 82.4993 21.8222 82.6156 21.6307 82.6949C21.4391 82.7742 21.2338 82.8151 21.0264 82.815C20.6077 82.815 20.2061 82.6487 19.91 82.3526C19.6139 82.0565 19.4475 81.6549 19.4475 81.2361V59.2918C19.4475 59.0844 19.4883 58.8791 19.5676 58.6875C19.647 58.496 19.7633 58.3219 19.9099 58.1753C20.0565 58.0287 20.2306 57.9124 20.4222 57.833C20.6137 57.7537 20.8191 57.7129 21.0264 57.7129C21.4452 57.7129 21.8468 57.8792 22.1429 58.1753C22.439 58.4714 22.6053 58.873 22.6053 59.2918ZM50.5 57.7129C50.0813 57.7129 49.6797 57.8792 49.3836 58.1753C49.0875 58.4714 48.9211 58.873 48.9211 59.2918V81.2361C48.9211 82.1082 49.6278 82.815 50.5 82.815C51.3723 82.815 52.079 82.108 52.079 81.2361V59.2918C52.079 59.0844 52.0382 58.8791 51.9588 58.6875C51.8795 58.496 51.7632 58.3219 51.6166 58.1753C51.4699 58.0287 51.2959 57.9124 51.1043 57.833C50.9127 57.7537 50.7074 57.7129 50.5 57.7129ZM79.9737 57.7129C79.5549 57.7129 79.1533 57.8792 78.8572 58.1753C78.5611 58.4714 78.3948 58.873 78.3948 59.2918V81.2361C78.3948 82.1082 79.1014 82.815 79.9737 82.815C80.846 82.815 81.5526 82.108 81.5526 81.2361V59.2918C81.5526 59.0844 81.5118 58.8791 81.4325 58.6875C81.3531 58.496 81.2368 58.3219 81.0902 58.1753C80.9436 58.0287 80.7695 57.9124 80.5779 57.833C80.3864 57.7537 80.181 57.7129 79.9737 57.7129Z" fill="white"/>
<path d="M58.1316 33.3356C58.1316 36.4783 55.5748 39.0352 52.4322 39.0352H46.0264C45.6076 39.0352 45.206 38.8688 44.9099 38.5727C44.6138 38.2766 44.4475 37.875 44.4475 37.4563V22.1973C44.4474 21.9899 44.4883 21.7846 44.5676 21.593C44.6469 21.4015 44.7632 21.2274 44.9099 21.0808C45.0565 20.9341 45.2305 20.8178 45.4221 20.7385C45.6137 20.6592 45.819 20.6183 46.0264 20.6184H51.2895C54.0949 20.6184 56.3771 22.901 56.3771 25.7065C56.3783 26.7174 56.0766 27.7056 55.5107 28.5434C57.0857 29.5582 58.1316 31.3266 58.1316 33.3356ZM47.6053 27.636H51.2895C52.3537 27.636 53.2193 26.7703 53.2193 25.7061C53.2193 24.6418 52.3537 23.7762 51.2895 23.7762H47.6053V27.636ZM54.9736 33.3356C54.9736 31.9344 53.8334 30.7942 52.4322 30.7942H47.6053V35.8772H52.4322C53.8334 35.877 54.9736 34.7369 54.9736 33.3356ZM100.5 92.6051C100.5 96.9582 96.9586 100.5 92.6053 100.5H8.39473C4.04141 100.5 0.5 96.9582 0.5 92.6051C0.5 88.2518 4.04141 84.7102 8.39473 84.7102H13.1316V37.4561C13.1316 37.2487 13.1724 37.0434 13.2518 36.8518C13.3311 36.6602 13.4474 36.4862 13.594 36.3396C13.7407 36.1929 13.9147 36.0766 14.1063 35.9973C14.2979 35.918 14.5032 35.8771 14.7105 35.8772C15.1293 35.8772 15.5309 36.0435 15.827 36.3396C16.1231 36.6357 16.2895 37.0373 16.2895 37.4561V84.7102H25.7631V37.4561C25.7631 37.2487 25.8039 37.0434 25.8832 36.8518C25.9626 36.6602 26.0789 36.4862 26.2255 36.3396C26.3721 36.1929 26.5462 36.0766 26.7377 35.9973C26.9293 35.918 27.1346 35.8771 27.342 35.8772C27.7607 35.8772 28.1623 36.0435 28.4584 36.3396C28.7545 36.6357 28.9209 37.0373 28.9209 37.4561V84.7102H42.6051V50.4985C42.6051 49.6264 43.3117 48.9195 44.184 48.9195C45.0563 48.9195 45.7629 49.6266 45.7629 50.4985V84.71H55.2365V50.4985C55.2365 49.6264 55.9432 48.9195 56.8154 48.9195C57.6877 48.9195 58.3943 49.6266 58.3943 50.4985V84.71H72.0785V37.4561C72.0785 37.2487 72.1193 37.0434 72.1986 36.8518C72.278 36.6602 72.3943 36.4862 72.5409 36.3396C72.6875 36.1929 72.8616 36.0766 73.0532 35.9973C73.2447 35.918 73.4501 35.8771 73.6574 35.8772C74.0762 35.8772 74.4778 36.0435 74.7739 36.3396C75.07 36.6357 75.2363 37.0373 75.2363 37.4561V84.7102H84.71V37.4561C84.7099 37.2487 84.7508 37.0434 84.8301 36.8518C84.9094 36.6602 85.0257 36.4862 85.1724 36.3396C85.319 36.1929 85.493 36.0766 85.6846 35.9973C85.8762 35.918 86.0815 35.8771 86.2889 35.8772C86.7076 35.8772 87.1092 36.0435 87.4053 36.3396C87.7014 36.6357 87.8678 37.0373 87.8678 37.4561V84.7102H92.6047C96.9586 84.7102 100.5 88.2516 100.5 92.6051ZM97.3422 92.6051C97.3422 89.9932 95.2172 87.868 92.6053 87.868H8.39473C5.78301 87.868 3.65781 89.993 3.65781 92.6051C3.65781 95.217 5.78281 97.3422 8.39473 97.3422H92.6053C95.217 97.342 97.3422 95.217 97.3422 92.6051ZM0.5 28.2676C0.5 26.1289 1.68867 24.207 3.60195 23.2518L47.9957 1.08712C49.5637 0.304309 51.4359 0.304114 53.0039 1.08712L97.3979 23.2518C99.3113 24.2067 100.5 26.1285 100.5 28.2674C100.5 31.3588 97.9852 33.8735 94.8937 33.8735H67.3873C65.5586 41.5045 58.6834 47.1953 50.5 47.1953C42.3166 47.1953 35.4414 41.5043 33.6127 33.8735H6.10605C3.01465 33.8736 0.5 31.359 0.5 28.2676ZM64.7105 29.8268C64.7105 21.9908 58.3357 15.6158 50.5 15.6158C42.6643 15.6158 36.2895 21.9908 36.2895 29.8268C36.2895 37.6627 42.6643 44.0377 50.5 44.0377C58.3357 44.0377 64.7105 37.6625 64.7105 29.8268ZM3.65781 28.2676C3.65781 29.6174 4.75605 30.7158 6.10605 30.7158H33.1541C33.1391 30.4197 33.1316 30.1233 33.1316 29.8268C33.1316 20.2494 40.9232 12.4576 50.5 12.4576C60.0768 12.4576 67.8684 20.2492 67.8684 29.8268C67.8683 30.1233 67.8608 30.4197 67.8459 30.7158H94.8939C96.2438 30.7158 97.3422 29.6178 97.3422 28.2676C97.3422 27.3336 96.8232 26.4943 95.9877 26.0774L51.5932 3.91271C51.2533 3.74418 50.8791 3.65649 50.4998 3.65649C50.1205 3.65649 49.7463 3.74418 49.4064 3.91271L5.0125 26.0774C4.60447 26.2792 4.26122 26.5915 4.02175 26.9786C3.78229 27.3658 3.6562 27.8124 3.65781 28.2676Z" fill="black"/>
</g>
<defs>
<clipPath id="clip0_1_80">
<rect width="100" height="100" fill="white" transform="translate(0.5 0.5)"/>
</clipPath>
</defs>
</svg>
