<svg width="21" height="24" viewBox="0 0 21 24" fill="none" xmlns="http://www.w3.org/2000/svg">
<path d="M10.5 24C11.2956 24 12.0587 23.6839 12.6213 23.1213C13.1839 22.5587 13.5 21.7956 13.5 21H7.5C7.5 21.7956 7.81607 22.5587 8.37868 23.1213C8.94129 23.6839 9.70435 24 10.5 24ZM11.9925 1.6485C12.0134 1.43993 11.9904 1.22929 11.9249 1.03016C11.8595 0.831031 11.753 0.647835 11.6124 0.492387C11.4717 0.33694 11.3001 0.212692 11.1085 0.127657C10.9169 0.042622 10.7096 -0.00131226 10.5 -0.00131226C10.2904 -0.00131226 10.0831 0.042622 9.8915 0.127657C9.6999 0.212692 9.52826 0.33694 9.38763 0.492387C9.24701 0.647835 9.14052 0.831031 9.07505 1.03016C9.00958 1.22929 8.98656 1.43993 9.0075 1.6485C7.31182 1.99283 5.78735 2.91287 4.69247 4.2527C3.59759 5.59253 2.99965 7.26971 3 9C3 10.647 2.25 18 0 19.5H21C18.75 18 18 10.647 18 9C18 5.37 15.42 2.34 11.9925 1.6485Z" fill="#748396"/>
</svg>
