<svg width="15" height="15" viewBox="0 0 15 15" fill="none" xmlns="http://www.w3.org/2000/svg">
<g clip-path="url(#clip0_71_32)">
<rect width="14" height="14" transform="translate(0.5 0.5)" fill="#00B553"/>
<path d="M7.5 13.625C5.87555 13.625 4.31763 12.9797 3.16897 11.831C2.02031 10.6824 1.375 9.12445 1.375 7.5C1.375 5.87555 2.02031 4.31763 3.16897 3.16897C4.31763 2.02031 5.87555 1.375 7.5 1.375C9.12445 1.375 10.6824 2.02031 11.831 3.16897C12.9797 4.31763 13.625 5.87555 13.625 7.5C13.625 9.12445 12.9797 10.6824 11.831 11.831C10.6824 12.9797 9.12445 13.625 7.5 13.625ZM7.5 14.5C9.35652 14.5 11.137 13.7625 12.4497 12.4497C13.7625 11.137 14.5 9.35652 14.5 7.5C14.5 5.64348 13.7625 3.86301 12.4497 2.55025C11.137 1.2375 9.35652 0.5 7.5 0.5C5.64348 0.5 3.86301 1.2375 2.55025 2.55025C1.2375 3.86301 0.5 5.64348 0.5 7.5C0.5 9.35652 1.2375 11.137 2.55025 12.4497C3.86301 13.7625 5.64348 14.5 7.5 14.5Z" fill="white"/>
<path d="M7.5 4C7.61603 4 7.72731 4.04609 7.80936 4.12814C7.89141 4.21019 7.9375 4.32147 7.9375 4.4375V7.0625H10.5625C10.6785 7.0625 10.7898 7.10859 10.8719 7.19064C10.9539 7.27269 11 7.38397 11 7.5C11 7.61603 10.9539 7.72731 10.8719 7.80936C10.7898 7.89141 10.6785 7.9375 10.5625 7.9375H7.9375V10.5625C7.9375 10.6785 7.89141 10.7898 7.80936 10.8719C7.72731 10.9539 7.61603 11 7.5 11C7.38397 11 7.27269 10.9539 7.19064 10.8719C7.10859 10.7898 7.0625 10.6785 7.0625 10.5625V7.9375H4.4375C4.32147 7.9375 4.21019 7.89141 4.12814 7.80936C4.04609 7.72731 4 7.61603 4 7.5C4 7.38397 4.04609 7.27269 4.12814 7.19064C4.21019 7.10859 4.32147 7.0625 4.4375 7.0625H7.0625V4.4375C7.0625 4.32147 7.10859 4.21019 7.19064 4.12814C7.27269 4.04609 7.38397 4 7.5 4Z" fill="white"/>
</g>
<defs>
<clipPath id="clip0_71_32">
<rect width="14" height="14" fill="white" transform="translate(0.5 0.5)"/>
</clipPath>
</defs>
</svg>
